<mxfile host="app.diagrams.net" modified="2024-08-08T05:54:38.507Z" agent="Mozilla/5.0 (Macintosh; Intel Mac OS X 10_15_7) AppleWebKit/537.36 (KHTML, like Gecko) Chrome/127.0.0.0 Safari/537.36" etag="vqlvyuCsR-R4fVz-ZqUF" version="24.6.4" type="device">
  <diagram name="Logging System Diagram" id="0">
    <mxGraphModel dx="1251" dy="638" grid="1" gridSize="10" guides="1" tooltips="1" connect="1" arrows="1" fold="1" page="1" pageScale="1" pageWidth="827" pageHeight="1169" math="0" shadow="0">
      <root>
        <mxCell id="0" />
        <mxCell id="1" parent="0" />
        <mxCell id="podsGroup" value="" style="group" parent="1" vertex="1" connectable="0">
          <mxGeometry x="190" y="230" width="160" height="320" as="geometry" />
        </mxCell>
        <mxCell id="logCollector" value="Log Collector" style="rounded=1;whiteSpace=wrap;html=1;" parent="podsGroup" vertex="1">
          <mxGeometry x="20" y="20" width="120" height="60" as="geometry" />
        </mxCell>
        <mxCell id="DmphM2UG-J3xQK686XTa-16" value="Log Forwarder" style="rounded=1;whiteSpace=wrap;html=1;" vertex="1" parent="podsGroup">
          <mxGeometry x="20" y="140" width="120" height="60" as="geometry" />
        </mxCell>
        <mxCell id="logSystemGroup" value="" style="group" parent="1" vertex="1" connectable="0">
          <mxGeometry x="350" y="145" width="450" height="440" as="geometry" />
        </mxCell>
        <mxCell id="distributor" value="Distributor" style="rounded=1;whiteSpace=wrap;html=1;" parent="logSystemGroup" vertex="1">
          <mxGeometry x="28.13" y="66" width="121.87" height="66" as="geometry" />
        </mxCell>
        <mxCell id="ZetwJTTiaY6uQIIp2rsa-11" style="edgeStyle=orthogonalEdgeStyle;rounded=0;orthogonalLoop=1;jettySize=auto;html=1;exitX=1;exitY=0.5;exitDx=0;exitDy=0;" parent="logSystemGroup" source="ingester" target="querier" edge="1">
          <mxGeometry relative="1" as="geometry" />
        </mxCell>
        <mxCell id="ingester" value="Ingester" style="rounded=1;whiteSpace=wrap;html=1;" parent="logSystemGroup" vertex="1">
          <mxGeometry x="28.13" y="154" width="121.88" height="66" as="geometry" />
        </mxCell>
        <mxCell id="memcached" value="Memcached" style="rounded=1;whiteSpace=wrap;html=1;" parent="logSystemGroup" vertex="1">
          <mxGeometry x="175.31" y="80" width="99.38" height="66" as="geometry" />
        </mxCell>
        <mxCell id="queryFrontend" value="Query Frontend" style="rounded=1;whiteSpace=wrap;html=1;" parent="logSystemGroup" vertex="1">
          <mxGeometry x="300" y="66" width="121.88" height="66" as="geometry" />
        </mxCell>
        <mxCell id="ZetwJTTiaY6uQIIp2rsa-6" style="edgeStyle=orthogonalEdgeStyle;rounded=0;orthogonalLoop=1;jettySize=auto;html=1;exitX=0.5;exitY=0;exitDx=0;exitDy=0;entryX=0.5;entryY=1;entryDx=0;entryDy=0;" parent="logSystemGroup" source="querier" target="queryFrontend" edge="1">
          <mxGeometry relative="1" as="geometry" />
        </mxCell>
        <mxCell id="querier" value="Querier" style="rounded=1;whiteSpace=wrap;html=1;" parent="logSystemGroup" vertex="1">
          <mxGeometry x="300" y="154" width="121.88" height="66" as="geometry" />
        </mxCell>
        <mxCell id="ZetwJTTiaY6uQIIp2rsa-1" value="Write Path" style="text;html=1;align=center;verticalAlign=middle;resizable=0;points=[];autosize=1;strokeColor=none;fillColor=none;" parent="logSystemGroup" vertex="1">
          <mxGeometry x="49.07" y="30" width="80" height="30" as="geometry" />
        </mxCell>
        <mxCell id="ZetwJTTiaY6uQIIp2rsa-2" value="Read Path" style="text;html=1;align=center;verticalAlign=middle;resizable=0;points=[];autosize=1;strokeColor=none;fillColor=none;" parent="logSystemGroup" vertex="1">
          <mxGeometry x="320.94" y="30" width="80" height="30" as="geometry" />
        </mxCell>
        <mxCell id="DmphM2UG-J3xQK686XTa-20" value="" style="endArrow=classic;startArrow=classic;html=1;rounded=0;edgeStyle=orthogonalEdgeStyle;entryX=0;entryY=0.5;entryDx=0;entryDy=0;exitX=1;exitY=0.5;exitDx=0;exitDy=0;" edge="1" parent="logSystemGroup" source="memcached" target="queryFrontend">
          <mxGeometry width="50" height="50" relative="1" as="geometry">
            <mxPoint x="196" as="sourcePoint" />
            <mxPoint x="246" y="-50" as="targetPoint" />
          </mxGeometry>
        </mxCell>
        <mxCell id="DmphM2UG-J3xQK686XTa-21" value="" style="endArrow=classic;startArrow=classic;html=1;rounded=0;edgeStyle=orthogonalEdgeStyle;entryX=0;entryY=0.5;entryDx=0;entryDy=0;exitX=1;exitY=0.25;exitDx=0;exitDy=0;" edge="1" parent="logSystemGroup" source="ingester" target="memcached">
          <mxGeometry width="50" height="50" relative="1" as="geometry">
            <mxPoint x="136" y="220" as="sourcePoint" />
            <mxPoint x="186" y="170" as="targetPoint" />
          </mxGeometry>
        </mxCell>
        <mxCell id="DmphM2UG-J3xQK686XTa-22" value="" style="endArrow=classic;startArrow=classic;html=1;rounded=0;edgeStyle=orthogonalEdgeStyle;exitX=0;exitY=0.25;exitDx=0;exitDy=0;" edge="1" parent="logSystemGroup" source="querier" target="memcached">
          <mxGeometry width="50" height="50" relative="1" as="geometry">
            <mxPoint x="137" y="145" as="sourcePoint" />
            <mxPoint x="187" y="95" as="targetPoint" />
          </mxGeometry>
        </mxCell>
        <mxCell id="DmphM2UG-J3xQK686XTa-29" value="" style="endArrow=none;dashed=1;html=1;dashPattern=1 3;strokeWidth=2;rounded=0;" edge="1" parent="logSystemGroup">
          <mxGeometry width="50" height="50" relative="1" as="geometry">
            <mxPoint x="14.5" y="278" as="sourcePoint" />
            <mxPoint x="431.5" y="278" as="targetPoint" />
          </mxGeometry>
        </mxCell>
        <mxCell id="DmphM2UG-J3xQK686XTa-30" value="" style="endArrow=none;dashed=1;html=1;dashPattern=1 3;strokeWidth=2;rounded=0;" edge="1" parent="logSystemGroup">
          <mxGeometry width="50" height="50" relative="1" as="geometry">
            <mxPoint x="10" y="5" as="sourcePoint" />
            <mxPoint x="10" y="280" as="targetPoint" />
          </mxGeometry>
        </mxCell>
        <mxCell id="DmphM2UG-J3xQK686XTa-48" value="" style="endArrow=none;dashed=1;html=1;dashPattern=1 3;strokeWidth=2;rounded=0;" edge="1" parent="logSystemGroup">
          <mxGeometry width="50" height="50" relative="1" as="geometry">
            <mxPoint x="430" y="5" as="sourcePoint" />
            <mxPoint x="430" y="280" as="targetPoint" />
          </mxGeometry>
        </mxCell>
        <mxCell id="connection3" style="edgeStyle=orthogonalEdgeStyle;rounded=0;orthogonalLoop=1;jettySize=auto;html=1;exitX=0.5;exitY=1;exitDx=0;exitDy=0;entryX=0.5;entryY=0;entryDx=0;entryDy=0;" parent="1" source="distributor" target="ingester" edge="1">
          <mxGeometry relative="1" as="geometry" />
        </mxCell>
        <mxCell id="DmphM2UG-J3xQK686XTa-1" value="Grafana" style="rounded=1;whiteSpace=wrap;html=1;" vertex="1" parent="1">
          <mxGeometry x="800" y="211" width="120" height="60" as="geometry" />
        </mxCell>
        <mxCell id="DmphM2UG-J3xQK686XTa-4" style="rounded=0;orthogonalLoop=1;jettySize=auto;html=1;entryX=-0.017;entryY=0.564;entryDx=0;entryDy=0;entryPerimeter=0;" edge="1" parent="1" source="queryFrontend" target="DmphM2UG-J3xQK686XTa-1">
          <mxGeometry relative="1" as="geometry" />
        </mxCell>
        <mxCell id="DmphM2UG-J3xQK686XTa-14" style="edgeStyle=orthogonalEdgeStyle;rounded=0;orthogonalLoop=1;jettySize=auto;html=1;exitX=0.5;exitY=1;exitDx=0;exitDy=0;entryX=0;entryY=0.5;entryDx=0;entryDy=0;" edge="1" parent="1" source="DmphM2UG-J3xQK686XTa-8" target="logCollector">
          <mxGeometry relative="1" as="geometry" />
        </mxCell>
        <mxCell id="DmphM2UG-J3xQK686XTa-8" value="Lambda&lt;div&gt;(Cloudwatch)&lt;/div&gt;" style="rounded=1;whiteSpace=wrap;html=1;" vertex="1" parent="1">
          <mxGeometry x="30" y="140" width="120" height="60" as="geometry" />
        </mxCell>
        <mxCell id="DmphM2UG-J3xQK686XTa-9" value="" style="endArrow=none;dashed=1;html=1;dashPattern=1 3;strokeWidth=2;rounded=0;" edge="1" parent="1">
          <mxGeometry width="50" height="50" relative="1" as="geometry">
            <mxPoint x="180" y="601.6216216216217" as="sourcePoint" />
            <mxPoint x="180" y="70" as="targetPoint" />
          </mxGeometry>
        </mxCell>
        <mxCell id="DmphM2UG-J3xQK686XTa-10" value="AWS" style="text;html=1;align=center;verticalAlign=middle;resizable=0;points=[];autosize=1;strokeColor=none;fillColor=none;" vertex="1" parent="1">
          <mxGeometry x="60" y="70" width="50" height="30" as="geometry" />
        </mxCell>
        <mxCell id="DmphM2UG-J3xQK686XTa-11" value="Kubernetes" style="text;html=1;align=center;verticalAlign=middle;resizable=0;points=[];autosize=1;strokeColor=none;fillColor=none;" vertex="1" parent="1">
          <mxGeometry x="510" y="70" width="80" height="30" as="geometry" />
        </mxCell>
        <mxCell id="DmphM2UG-J3xQK686XTa-13" style="edgeStyle=orthogonalEdgeStyle;rounded=0;orthogonalLoop=1;jettySize=auto;html=1;entryX=0.5;entryY=0;entryDx=0;entryDy=0;" edge="1" parent="1" source="DmphM2UG-J3xQK686XTa-12" target="logCollector">
          <mxGeometry relative="1" as="geometry" />
        </mxCell>
        <mxCell id="DmphM2UG-J3xQK686XTa-12" value="Application" style="rounded=1;whiteSpace=wrap;html=1;" vertex="1" parent="1">
          <mxGeometry x="210" y="140" width="120" height="60" as="geometry" />
        </mxCell>
        <mxCell id="DmphM2UG-J3xQK686XTa-17" style="edgeStyle=orthogonalEdgeStyle;rounded=0;orthogonalLoop=1;jettySize=auto;html=1;entryX=0;entryY=0.5;entryDx=0;entryDy=0;" edge="1" parent="1" source="kafka" target="DmphM2UG-J3xQK686XTa-16">
          <mxGeometry relative="1" as="geometry" />
        </mxCell>
        <mxCell id="kafka" value="Kafka&lt;div&gt;(MSK)&lt;/div&gt;" style="shape=ellipse;perimeter=ellipsePerimeter;whiteSpace=wrap;html=1;" parent="1" vertex="1">
          <mxGeometry x="40" y="370" width="100" height="60" as="geometry" />
        </mxCell>
        <mxCell id="ZetwJTTiaY6uQIIp2rsa-21" style="edgeStyle=orthogonalEdgeStyle;rounded=0;orthogonalLoop=1;jettySize=auto;html=1;exitX=0.5;exitY=1;exitDx=0;exitDy=0;" parent="1" source="logCollector" target="kafka" edge="1">
          <mxGeometry relative="1" as="geometry" />
        </mxCell>
        <mxCell id="DmphM2UG-J3xQK686XTa-18" style="edgeStyle=orthogonalEdgeStyle;rounded=0;orthogonalLoop=1;jettySize=auto;html=1;entryX=0;entryY=0.5;entryDx=0;entryDy=0;" edge="1" parent="1" source="DmphM2UG-J3xQK686XTa-16" target="distributor">
          <mxGeometry relative="1" as="geometry" />
        </mxCell>
        <mxCell id="DmphM2UG-J3xQK686XTa-23" value="S3" style="shape=cylinder3;whiteSpace=wrap;html=1;boundedLbl=1;backgroundOutline=1;size=15;" vertex="1" parent="1">
          <mxGeometry x="60" y="470" width="60" height="80" as="geometry" />
        </mxCell>
        <mxCell id="ZetwJTTiaY6uQIIp2rsa-5" style="edgeStyle=orthogonalEdgeStyle;rounded=0;orthogonalLoop=1;jettySize=auto;html=1;exitX=0.5;exitY=1;exitDx=0;exitDy=0;entryX=1;entryY=0;entryDx=0;entryDy=27.5;entryPerimeter=0;" parent="1" source="ingester" target="DmphM2UG-J3xQK686XTa-23" edge="1">
          <mxGeometry relative="1" as="geometry">
            <mxPoint x="569.31" y="370" as="targetPoint" />
          </mxGeometry>
        </mxCell>
        <mxCell id="ZetwJTTiaY6uQIIp2rsa-4" style="edgeStyle=orthogonalEdgeStyle;rounded=0;orthogonalLoop=1;jettySize=auto;html=1;exitX=1;exitY=0;exitDx=0;exitDy=52.5;entryX=0.5;entryY=1;entryDx=0;entryDy=0;exitPerimeter=0;" parent="1" source="DmphM2UG-J3xQK686XTa-23" target="querier" edge="1">
          <mxGeometry relative="1" as="geometry">
            <mxPoint x="708.6799999999998" y="370" as="sourcePoint" />
          </mxGeometry>
        </mxCell>
        <mxCell id="DmphM2UG-J3xQK686XTa-24" value="" style="endArrow=none;dashed=1;html=1;dashPattern=1 3;strokeWidth=2;rounded=0;" edge="1" parent="1">
          <mxGeometry width="50" height="50" relative="1" as="geometry">
            <mxPoint x="950" y="600" as="sourcePoint" />
            <mxPoint x="950" y="70" as="targetPoint" />
          </mxGeometry>
        </mxCell>
        <mxCell id="DmphM2UG-J3xQK686XTa-25" value="Internet" style="text;html=1;align=center;verticalAlign=middle;resizable=0;points=[];autosize=1;strokeColor=none;fillColor=none;" vertex="1" parent="1">
          <mxGeometry x="970" y="70" width="60" height="30" as="geometry" />
        </mxCell>
        <mxCell id="DmphM2UG-J3xQK686XTa-26" value="Actor" style="shape=umlActor;verticalLabelPosition=bottom;verticalAlign=top;html=1;outlineConnect=0;" vertex="1" parent="1">
          <mxGeometry x="980" y="200" width="40" height="80" as="geometry" />
        </mxCell>
        <mxCell id="DmphM2UG-J3xQK686XTa-27" value="" style="endArrow=classic;startArrow=classic;html=1;rounded=0;exitX=1;exitY=0.5;exitDx=0;exitDy=0;" edge="1" parent="1" source="DmphM2UG-J3xQK686XTa-1" target="DmphM2UG-J3xQK686XTa-26">
          <mxGeometry width="50" height="50" relative="1" as="geometry">
            <mxPoint x="1010" y="211" as="sourcePoint" />
            <mxPoint x="1060" y="161" as="targetPoint" />
          </mxGeometry>
        </mxCell>
        <mxCell id="DmphM2UG-J3xQK686XTa-28" value="" style="endArrow=none;dashed=1;html=1;dashPattern=1 3;strokeWidth=2;rounded=0;" edge="1" parent="1">
          <mxGeometry width="50" height="50" relative="1" as="geometry">
            <mxPoint x="363" y="150" as="sourcePoint" />
            <mxPoint x="780" y="150" as="targetPoint" />
          </mxGeometry>
        </mxCell>
        <mxCell id="DmphM2UG-J3xQK686XTa-49" value="Loki" style="text;html=1;align=center;verticalAlign=middle;resizable=0;points=[];autosize=1;strokeColor=none;fillColor=none;" vertex="1" parent="1">
          <mxGeometry x="350" y="120" width="50" height="30" as="geometry" />
        </mxCell>
      </root>
    </mxGraphModel>
  </diagram>
</mxfile>
